<svg width="32" height="32" viewBox="0 0 32 32" fill="none" xmlns="http://www.w3.org/2000/svg">
<rect x="5" y="5" width="21" height="21" fill="#FD0000"/>
<path fill-rule="evenodd" clip-rule="evenodd" d="M9.08008 1H23.9199C27.8195 1 31 4.18048 31 8.08008V22.9199C31 26.8195 27.8195 30 23.9199 30H9.08008C5.18054 30 2 26.8195 2 22.9199V8.08008C2 4.18048 5.18054 1 9.08008 1ZM22.7483 9.25118C21.9295 8.42844 20.9557 7.77616 19.8833 7.33203C18.8109 6.8879 17.661 6.66073 16.5003 6.66367C16.2075 6.66377 15.9267 6.78011 15.7196 6.98712C15.5125 7.19413 15.396 7.47489 15.3958 7.7677V14.2958L12.5932 13.651C12.5342 13.6376 12.4725 13.6416 12.4157 13.6627C12.3589 13.6838 12.3096 13.721 12.2736 13.7697C12.2376 13.8184 12.2166 13.8766 12.2132 13.9371C12.2098 13.9975 12.224 14.0577 12.2542 14.1102L14.1989 17.4777L16.2312 20.9982C16.2587 21.0452 16.298 21.0843 16.3453 21.1114C16.3925 21.1386 16.4461 21.1528 16.5006 21.1528C16.5551 21.1528 16.6086 21.1386 16.6559 21.1114C16.7031 21.0843 16.7425 21.0452 16.7699 20.9982L18.8022 17.4777L20.7467 14.1102C20.7769 14.0577 20.7912 13.9976 20.7877 13.9371C20.7843 13.8767 20.7633 13.8185 20.7274 13.7698C20.6915 13.7211 20.6421 13.6839 20.5854 13.6628C20.5286 13.6417 20.467 13.6376 20.4079 13.651L17.6048 14.2958V8.96458C19.1593 9.22807 20.5689 10.0374 21.5802 11.2471C22.5915 12.4568 23.1381 13.9876 23.1218 15.5642C23.1055 17.1409 22.5274 18.66 21.4914 19.8486C20.4553 21.0372 19.0293 21.8172 17.4697 22.0485C15.91 22.2799 14.3189 21.9473 12.9825 21.1106C11.6461 20.2739 10.6519 18.988 10.1787 17.4839C9.70552 15.9799 9.7843 14.3564 10.4009 12.9052C11.0175 11.4541 12.1315 10.2704 13.5427 9.56707C13.8046 9.43612 14.0038 9.20648 14.0964 8.92867C14.189 8.65087 14.1675 8.34765 14.0366 8.08571C13.9056 7.82378 13.676 7.6246 13.3982 7.53198C13.1204 7.43936 12.8171 7.46089 12.5552 7.59184C10.8826 8.42621 9.51776 9.76948 8.6568 11.4285C7.79584 13.0875 7.48315 14.9769 7.76371 16.8248C8.04426 18.6728 8.9036 20.3841 10.2182 21.7129C11.5327 23.0416 13.2348 23.9193 15.0796 24.2196C16.9245 24.52 18.817 24.2276 20.4852 23.3845C22.1534 22.5414 23.5112 21.191 24.3635 19.5275C25.2157 17.864 25.5185 15.973 25.2283 14.1266C24.9381 12.2801 24.0698 10.5733 22.7483 9.25141V9.25118Z" fill="#172340"/>
</svg>
