<svg width="32" height="32" viewBox="0 0 32 32" fill="none" xmlns="http://www.w3.org/2000/svg">
<rect x="5" y="5" width="22" height="22" fill="#FD0000"/>
<path fill-rule="evenodd" clip-rule="evenodd" d="M31 23.6758L31 8.32422C31 4.29015 27.7098 0.999999 23.6758 0.999999L8.32422 1C4.29016 1 0.999999 4.29016 0.999999 8.32422L1 23.6758C1 27.7098 4.29016 31 8.32422 31L23.6758 31C27.7098 31 31 27.7098 31 23.6758ZM12.3061 6.85973C12.3477 6.85896 12.3887 6.86953 12.4248 6.89029C12.4608 6.91106 12.4905 6.94125 12.5107 6.97762L14.0567 9.65482L15.5356 12.2167C15.5587 12.2566 15.5695 12.3023 15.5669 12.3483C15.5643 12.3943 15.5484 12.4385 15.521 12.4755C15.4936 12.5126 15.456 12.5408 15.4128 12.5568C15.3696 12.5728 15.3227 12.5758 15.2778 12.5655L13.6118 12.1824L13.6118 14.6934L23.4138 14.6934C23.7601 14.6934 24.0923 14.8309 24.3372 15.0759C24.5821 15.3208 24.7197 15.6529 24.7197 15.9993C24.7197 16.3457 24.5821 16.6778 24.3372 16.9227C24.0923 17.1676 23.7601 17.3052 23.4138 17.3052L21 17.3052L21 19.8167L22.666 19.4335C22.7109 19.4232 22.7578 19.4262 22.801 19.4422C22.8442 19.4582 22.8818 19.4864 22.9091 19.5235C22.9365 19.5605 22.9525 19.6047 22.9551 19.6507C22.9577 19.6967 22.9468 19.7424 22.9238 19.7823L21.4449 22.3443L19.8988 25.022C19.8781 25.058 19.8483 25.0879 19.8123 25.1087C19.7764 25.1295 19.7356 25.1405 19.694 25.1405C19.6525 25.1405 19.6117 25.1295 19.5758 25.1087C19.5398 25.0879 19.51 25.058 19.4893 25.022L17.9433 22.3443L16.4644 19.7823C16.4414 19.7424 16.4305 19.6967 16.4331 19.6507C16.4357 19.6047 16.4517 19.5605 16.4791 19.5235C16.5064 19.4864 16.544 19.4582 16.5872 19.4422C16.6304 19.4262 16.6773 19.4232 16.7222 19.4335L18.3882 19.8167L18.3882 17.3054L8.58631 17.3054C8.23995 17.3054 7.90778 17.1678 7.66287 16.9229C7.41796 16.678 7.28037 16.3458 7.28037 15.9995C7.28037 15.6531 7.41796 15.3209 7.66287 15.076C7.90778 14.8311 8.23995 14.6935 8.58631 14.6935L11 14.6935L11 12.1824L9.33391 12.5655C9.28901 12.5758 9.24207 12.5728 9.19886 12.5569C9.15566 12.5409 9.11805 12.5126 9.09067 12.4756C9.06329 12.4385 9.04733 12.3943 9.04474 12.3483C9.04215 12.3023 9.05305 12.2565 9.07609 12.2167L10.555 9.65482L12.1011 6.97762C12.1213 6.94119 12.1511 6.91096 12.1872 6.89019C12.2234 6.86942 12.2645 6.85888 12.3061 6.85973Z" fill="#172340"/>
</svg>
