<svg width="28" height="28" viewBox="0 0 28 28" fill="none" xmlns="http://www.w3.org/2000/svg">
<path d="M14.825 14.6348L12.0771 18.949L9.45493 20.0886C7.90998 18.291 6.26003 16.1582 5.47998 13.4617L7.04998 10.4961L9.57498 9.30273C9.53003 9.57695 9.49998 9.85117 9.49998 10.1406C9.49998 12.6542 11.5249 14.7109 14 14.7109C14.285 14.7109 14.555 14.6804 14.825 14.6348Z" fill="#FFDA2D"/>
<path d="M18.4253 10.974C18.4703 10.7013 18.4998 10.4287 18.4998 10.1407C18.4998 7.62908 16.4778 5.57346 14.0053 5.57041H13.9998C13.7148 5.57041 13.4448 5.60088 13.1748 5.64658L17.1648 1.59424C19.5798 2.5083 21.5148 4.47353 22.4148 6.92627L18.4248 10.9786C18.4248 10.9771 18.4253 10.9756 18.4253 10.974Z" fill="#80AEF8"/>
<path d="M22.415 6.92627L21.05 9.63291L18.425 10.9786C18.425 10.9771 18.4255 10.9756 18.4255 10.974C18.4705 10.7013 18.5 10.4287 18.5 10.1407C18.5 7.62908 16.478 5.57346 14.0055 5.57041H14.0015V4.80717L14.9 2.77744L17.165 1.59424C19.58 2.5083 21.515 4.47353 22.415 6.92627Z" fill="#4086F4"/>
<path d="M22.4147 6.92627L18.4247 10.9786C18.0796 12.822 16.6397 14.2844 14.8246 14.6349H14.8246L10.481 19.0463L9.45459 20.0887C9.70964 20.3781 9.93459 20.6372 10.1746 20.9114C11.8247 22.8157 13.2497 24.5625 13.2497 26.2384C13.2497 26.6649 13.5796 27.0001 13.9997 27.0001C14.4197 27.0001 14.7497 26.6649 14.7497 26.2384C14.7497 24.5625 16.1747 22.8157 17.8247 20.9114C20.1347 18.2758 22.9997 14.9853 22.9997 10.1407C22.9997 9.01338 22.8047 7.93174 22.4147 6.92627V6.92627Z" fill="#59C36A"/>
<path d="M22.4144 6.92627L18.4245 10.9785V10.9786C18.0794 12.822 16.6395 14.2844 14.8244 14.6349C14.8244 14.6349 14.8244 14.6349 14.8243 14.6349L14.001 15.471V26.9998C14.4203 26.9989 14.7494 26.6643 14.7494 26.2384C14.7494 24.5625 16.1744 22.8157 17.8244 20.9114C20.1345 18.2758 22.9994 14.9853 22.9994 10.1407C22.9994 9.01338 22.8044 7.93174 22.4144 6.92627V6.92627Z" fill="#00A66C"/>
<path d="M14.0015 15.4711L14.8249 14.6348C14.5555 14.6803 14.286 14.7105 14.0015 14.7107V15.4711Z" fill="#FDBF00"/>
<path d="M17.1651 1.59414L13.1751 5.64648C12.2601 5.8293 11.4501 6.27104 10.8201 6.91099L8.50014 5.92578L7.64014 3.68125C9.26019 2.02065 11.5102 1 14.0001 1C15.1101 1 16.1751 1.19805 17.1651 1.59414Z" fill="#4086F4"/>
<path d="M14.0015 4.80711L17.1649 1.59423C16.1754 1.19829 15.1109 1.00045 14.0015 1.00024V4.80711H14.0015Z" fill="#4175DF"/>
<path d="M10.82 6.91084C10.19 7.55068 9.75495 8.37329 9.575 9.30264L5.48 13.4616C5.18 12.441 5 11.344 5 10.1405C5 7.61157 6.00495 5.32641 7.64 3.68115L10.82 6.91084Z" fill="#F03800"/>
</svg>
