<svg width="214" height="32" viewBox="0 0 214 32" fill="none" xmlns="http://www.w3.org/2000/svg">
<path d="M77.6271 17.503C78.0786 17.0666 78.4657 16.6981 78.8495 16.3232C81.1266 14.0799 83.4036 11.8335 85.6839 9.59348C87.5611 7.75105 89.4414 5.91833 91.3218 4.07913C91.4218 3.98217 91.5089 3.89166 91.6798 3.89166C92.5797 3.90136 93.4763 3.89489 94.4504 3.89489C93.9343 4.41206 93.4731 4.88398 93.0022 5.34621C90.351 7.94499 87.6965 10.5405 85.0453 13.1361C84.0874 14.0735 83.1327 15.0141 82.1683 15.945C81.9974 16.1098 81.9684 16.1971 82.1587 16.3814C84.5905 18.7442 87.0128 21.1135 89.435 23.4828C91.296 25.3026 93.1538 27.1288 95.0148 28.9486C95.1922 29.1232 95.3825 29.288 95.5824 29.469C95.6824 29.2816 95.6405 29.1264 95.6405 28.9777C95.6405 20.7773 95.6469 12.5769 95.6308 4.37651C95.6308 3.95954 95.7534 3.88843 96.1372 3.88843C102.417 3.90136 108.697 3.90136 114.976 3.88843C115.312 3.88843 115.418 3.95954 115.396 4.3054C115.36 4.78055 115.37 5.25893 115.396 5.73732C115.412 6.0153 115.321 6.07348 115.054 6.07025C111.854 6.06055 108.658 6.06378 105.458 6.06378C103.046 6.06378 100.637 6.07025 98.224 6.05408C97.895 6.05408 97.8273 6.14782 97.8305 6.46136C97.8434 9.37691 97.8434 12.2892 97.8305 15.2048C97.8305 15.5248 97.9144 15.6121 98.2337 15.6088C103.172 15.5991 108.113 15.6088 113.051 15.5927C113.425 15.5927 113.544 15.6864 113.515 16.0614C113.48 16.5106 113.489 16.9632 113.515 17.4157C113.528 17.6904 113.438 17.7583 113.17 17.7551C111.519 17.7422 109.871 17.7486 108.219 17.7486C104.894 17.7486 101.565 17.7519 98.2401 17.7422C97.924 17.7422 97.8305 17.8165 97.8337 18.143C97.8466 21.1717 97.8466 24.2036 97.8337 27.2323C97.8337 27.5781 97.9208 27.6557 98.2595 27.6557C103.83 27.6428 109.4 27.6525 114.97 27.6395C115.338 27.6395 115.418 27.7494 115.399 28.0856C115.37 28.5737 115.386 29.065 115.396 29.5563C115.399 29.7406 115.344 29.8181 115.154 29.7987C115.063 29.789 114.973 29.7987 114.883 29.7987C108.758 29.7987 102.633 29.7987 96.5081 29.7987C95.4373 29.7987 94.3697 29.7826 93.2989 29.8084C92.9699 29.8149 92.7377 29.7082 92.5184 29.4884C91.5927 28.5737 90.6638 27.6622 89.7349 26.7507C87.1934 24.2618 84.6551 21.7729 82.1135 19.284C81.6168 18.7959 81.1072 18.324 80.6202 17.8262C80.4621 17.6678 80.3783 17.6775 80.2267 17.8294C79.43 18.6375 78.6269 19.4359 77.8141 20.2278C77.6561 20.383 77.6335 20.5446 77.6335 20.7418C77.6368 23.6185 77.6271 26.4921 77.6464 29.3688C77.6464 29.7341 77.5432 29.8246 77.1981 29.8052C76.7111 29.7761 76.2176 29.7826 75.7274 29.8052C75.4629 29.8149 75.3758 29.7179 75.4113 29.4723C75.4177 29.4205 75.4113 29.3688 75.4113 29.3171C75.4113 21.0003 75.4145 12.6836 75.4016 4.36681C75.4016 3.95954 75.5177 3.86903 75.8919 3.89489C76.366 3.92722 76.8466 3.91752 77.3239 3.89489C77.5755 3.8852 77.6464 3.95631 77.6432 4.21166C77.6303 5.57893 77.6368 6.94621 77.6368 8.31348C77.6368 11.3422 77.6368 14.3741 77.6368 17.5062L77.6271 17.503Z" fill="#FD0000"/>
<path d="M161.085 8.85007C157.75 12.3765 154.49 15.9709 151.151 19.52C150.613 18.9317 150.071 18.3499 149.542 17.7584C149.019 17.1765 148.516 16.5786 147.997 15.9935C146.952 14.8137 145.904 13.6339 144.849 12.4606C144.069 11.5911 143.278 10.7313 142.495 9.86825C142.34 9.69694 142.195 9.51593 142.043 9.34462C141.995 9.28967 141.933 9.22502 141.846 9.27027C141.775 9.30583 141.795 9.38017 141.792 9.44159C141.788 9.54502 141.792 9.64845 141.792 9.75189C141.792 16.3555 141.792 22.9559 141.792 29.5596C141.792 29.8936 141.626 30.0606 141.295 30.0606C140.74 30.0606 140.185 30.0476 139.631 30.067C139.353 30.0767 139.285 29.9798 139.289 29.7147C139.302 28.3345 139.295 26.9543 139.295 25.5741C139.295 18.0816 139.295 10.5891 139.295 3.09977V2.61169C139.679 3.02219 140.011 3.36159 140.33 3.71714C140.914 4.36684 141.485 5.023 142.066 5.67593C143.053 6.78785 144.036 7.903 145.023 9.01492C145.517 9.57088 146.023 10.1171 146.52 10.6731C147.804 12.105 149.084 13.5434 150.364 14.9753C150.577 15.2145 150.829 15.4182 151.006 15.6929C151.106 15.8481 151.235 15.8222 151.358 15.6929C151.906 15.0982 152.461 14.5099 153.003 13.9087C153.364 13.5078 153.751 13.1329 154.112 12.7289C154.941 11.7979 155.815 10.9091 156.667 9.99755C158.044 8.52361 159.415 7.04643 160.785 5.56603C161.64 4.64159 162.485 3.71391 163.34 2.78623C163.424 2.69249 163.524 2.61169 163.617 2.52441C163.746 2.63108 163.695 2.75391 163.695 2.86058C163.695 11.7979 163.695 20.7321 163.704 29.6695C163.704 29.9992 163.604 30.0864 163.288 30.0735C162.734 30.0509 162.179 30.0476 161.624 30.0735C161.295 30.0897 161.185 30.0089 161.189 29.6533C161.208 27.6169 161.198 25.5773 161.198 23.541C161.198 18.8089 161.198 14.0767 161.198 9.34462V8.92765L161.092 8.85654L161.085 8.85007Z" fill="#939498"/>
<path d="M37.9847 3.07397C37.4687 3.5168 36.9752 3.86913 36.572 4.30549C36.1592 4.75155 35.6722 4.73539 35.1432 4.76771C32.7629 4.9164 30.6084 5.70509 28.7409 7.20165C26.38 9.09579 24.9415 11.5459 24.4996 14.5423C24.2319 16.3459 24.3964 18.1334 24.977 19.8691C25.0092 19.9629 24.9867 20.1439 25.1479 20.1309C25.2834 20.118 25.2802 19.9629 25.3092 19.8562C25.9123 17.6356 26.9573 15.6412 28.3442 13.815C29.1054 12.8097 29.944 11.8724 30.8535 11.0029C31.6695 10.2239 32.5468 9.51599 33.4338 8.81781C33.5273 8.74347 33.6434 8.6368 33.7789 8.74347C33.8466 8.79519 33.9595 8.83397 33.8111 8.96973C32.9693 9.73256 32.4178 10.7023 31.9082 11.6946C31.3148 12.8485 30.6503 13.9701 30.2536 15.2146C29.6763 17.0247 29.6053 18.8703 29.9343 20.7386C30.1762 22.1221 30.9406 23.2534 31.7598 24.3362C32.621 25.474 33.7112 26.3726 35.0142 26.9802C35.7431 27.3196 36.4946 27.672 37.3396 27.5653C38.4169 27.4295 39.449 27.1322 40.4456 26.7023C41.9938 26.0364 43.3194 25.0602 44.4257 23.8061C45.8738 22.1641 46.7898 20.257 47.1414 18.0849C47.5768 15.3956 47.1156 12.8614 45.7771 10.5019C44.7095 8.62064 43.2065 7.15963 41.3068 6.11882C41.1842 6.05094 41.0455 6.02185 40.8843 5.96367C41.4294 5.5661 41.9583 5.18468 42.4808 4.80003C42.5776 4.72892 42.6356 4.77418 42.7195 4.82589C43.9806 5.58226 45.0998 6.497 46.0674 7.61862C47.5865 9.3867 48.5476 11.4101 48.9573 13.6889C49.441 16.3588 49.183 18.9511 48.1025 21.4627C47.4123 23.0627 46.4512 24.4817 45.2159 25.6873C43.0485 27.8045 40.4585 29.0974 37.4332 29.4497C34.1659 29.8311 31.1438 29.1168 28.4216 27.2776C25.3318 25.1863 23.3966 22.2804 22.716 18.6182C22.0033 14.7847 22.8741 11.2647 25.2157 8.15519C27.0993 5.65337 29.6053 4.02751 32.6436 3.24852C34.2949 2.82509 35.9721 2.7863 37.659 2.977C37.746 2.9867 37.8267 3.02872 37.9912 3.08044L37.9847 3.07397Z" fill="#939498"/>
<path d="M73.6147 7.52166C73.1309 8.00327 72.6407 8.47519 72.1698 8.96974C72.0021 9.14428 71.9376 9.01176 71.8408 8.91802C70.741 7.85135 69.5089 6.97216 68.0865 6.4065C64.4258 4.94873 60.9618 5.42711 57.7623 7.66065C55.224 9.43196 53.6726 11.9047 53.1985 14.9592C52.6534 18.4695 53.6629 21.5726 56.0593 24.1843C57.872 26.1625 60.1232 27.3617 62.8131 27.659C66.2255 28.0372 69.167 27.0255 71.6086 24.598C71.8516 24.3567 72.101 24.3588 72.3569 24.6045C72.7181 24.9536 73.0793 25.3027 73.4503 25.6421C73.5922 25.7714 73.6083 25.8522 73.4567 26.0008C71.3699 28.0404 68.9155 29.3592 66.0062 29.7503C61.5262 30.3548 57.6817 28.9907 54.5112 25.8166C52.5341 23.8352 51.3181 21.4142 50.9214 18.6182C50.357 14.6554 51.3891 11.1419 53.9725 8.10024C55.969 5.74711 58.517 4.27317 61.5359 3.70428C65.9062 2.88327 70.1153 3.95317 73.6147 7.52489V7.52166Z" fill="#FD0000"/>
<path d="M199.76 2.82495C204.127 11.9142 208.452 20.913 212.807 29.97C211.984 29.97 211.207 29.97 210.429 29.97C210.249 29.97 210.22 29.7987 210.162 29.6791C209.249 27.7817 208.343 25.8843 207.433 23.987C206.178 21.372 204.921 18.7571 203.666 16.1421C202.821 14.3837 201.979 12.6221 201.141 10.8605C200.753 10.0492 200.379 9.23465 199.996 8.42334C199.947 8.32313 199.925 8.17768 199.783 8.17768C199.638 8.17768 199.631 8.3296 199.583 8.42657C198.422 10.8993 197.26 13.3753 196.099 15.848C195.135 17.9037 194.167 19.9595 193.203 22.0153C192 24.5817 190.8 27.1514 189.607 29.7243C189.526 29.9021 189.416 29.9797 189.223 29.9797C188.565 29.9732 187.907 29.9732 187.249 29.9797C187.036 29.9797 187.01 29.9118 187.094 29.7308C187.372 29.1393 187.636 28.5413 187.917 27.9498C189.113 25.4221 190.313 22.8944 191.507 20.3635C192.352 18.5761 193.193 16.7886 194.038 15.0011C195.283 12.3538 196.528 9.70657 197.773 7.05929C198.422 5.67909 199.07 4.29566 199.757 2.82818L199.76 2.82495Z" fill="#939498"/>
<path d="M164.585 22.135C165.02 22.442 165.282 22.817 165.553 23.1564C167.268 25.322 169.445 26.7572 172.155 27.2938C174.751 27.8077 177.209 27.3487 179.496 25.9976C180.718 25.2768 181.721 24.3168 182.634 23.2469C182.737 23.1273 182.766 23.0077 182.766 22.8622C182.766 21.3915 182.756 19.9208 182.773 18.4534C182.776 18.1366 182.618 18.1398 182.392 18.1398C180.083 18.1431 177.776 18.1366 175.467 18.1495C175.129 18.1495 174.987 18.0849 175.009 17.7099C175.041 17.1055 175.025 16.4978 175.016 15.8934C175.012 15.68 175.051 15.5669 175.306 15.5669C178.58 15.5734 181.857 15.5766 185.13 15.5669C185.485 15.5669 185.404 15.7899 185.404 15.9806C185.404 19.7204 185.404 23.4602 185.404 27.1968C185.404 27.9952 185.395 28.7968 185.411 29.5952C185.414 29.8311 185.346 29.9087 185.104 29.9022C184.434 29.8893 183.763 29.8829 183.092 29.9022C182.805 29.9119 182.753 29.7956 182.756 29.5435C182.769 28.8227 182.763 28.0986 182.756 27.3778C182.756 27.297 182.802 27.1839 182.692 27.1386C182.595 27.0998 182.576 27.2097 182.518 27.2485C180.302 28.6675 177.986 29.7923 175.299 29.9992C171.826 30.2675 168.733 29.3172 165.965 27.2356C165.536 26.9123 165.12 26.5697 164.746 26.1786C164.646 26.0719 164.572 25.9717 164.572 25.8101C164.578 24.6109 164.572 23.4117 164.572 22.135H164.585Z" fill="#939498"/>
<path d="M127.768 17.9232C127.768 21.7406 127.765 25.558 127.774 29.3754C127.774 29.6824 127.69 29.7665 127.394 29.7503C126.945 29.7244 126.491 29.718 126.039 29.7503C125.678 29.7762 125.571 29.6889 125.571 29.301C125.588 23.4731 125.581 17.6453 125.581 11.8141C125.581 10.0202 125.575 8.2295 125.588 6.43556C125.588 6.13495 125.513 6.05091 125.207 6.05414C122.214 6.06707 119.224 6.05414 116.231 6.0703C115.908 6.0703 115.815 5.99596 115.834 5.67273C115.863 5.17172 115.854 4.66748 115.834 4.16323C115.828 3.93697 115.908 3.86263 116.118 3.89495C116.17 3.90142 116.221 3.89495 116.273 3.89495C123.211 3.89495 130.148 3.89818 137.086 3.88525C137.454 3.88525 137.534 3.99192 137.515 4.33131C137.486 4.76768 137.486 5.21051 137.515 5.64687C137.534 5.9701 137.463 6.07677 137.105 6.07354C134.125 6.05738 131.148 6.0703 128.168 6.05414C127.829 6.05414 127.749 6.13172 127.749 6.47111C127.761 10.2885 127.758 14.1059 127.758 17.9232H127.768Z" fill="#FD0000"/>
<path d="M164.585 10.9771C164.585 9.66475 164.582 8.45263 164.585 7.24051C164.585 6.78475 164.991 6.59728 165.265 6.35808C166.281 5.4692 167.404 4.73546 168.642 4.1795C170.123 3.51687 171.665 3.13546 173.287 3.02879C175.857 2.85748 178.251 3.4296 180.508 4.64172C181.747 5.30758 182.853 6.15122 183.85 7.14031C184.001 7.29223 184.017 7.37627 183.853 7.53142C183.36 8.00334 182.872 8.48495 182.405 8.9795C182.218 9.17667 182.098 9.1799 181.915 8.9795C181.002 7.96778 179.915 7.17586 178.686 6.59728C177.422 6.00253 176.093 5.66313 174.683 5.58879C171.984 5.44657 169.61 6.28374 167.481 7.89344C166.585 8.57223 165.898 9.46111 165.162 10.3015C164.988 10.5019 164.817 10.7023 164.585 10.9771Z" fill="#939498"/>
<path d="M32.6047 6.83966C33.6562 6.48733 34.6302 6.15764 35.6011 5.8344C35.9397 5.72127 36.2752 5.58875 36.6203 5.51117C37.4169 5.33339 37.9297 4.73218 38.5232 4.25703C39.3553 3.58794 40.1713 2.89622 40.9809 2.20451C41.4195 1.82956 41.9711 1.92653 42.471 1.81016C42.5516 1.79077 42.5839 1.84895 42.5807 1.92329C42.5807 1.96208 42.5742 2.00087 42.5807 2.03966C42.6935 2.79602 42.4516 3.33259 41.755 3.74632C40.9422 4.23117 40.1971 4.83562 39.4392 5.40451C38.9393 5.77946 38.6135 6.31925 38.2039 6.77824C37.7072 7.3342 37.2718 7.94834 36.7557 8.48168C36.3687 8.87925 36.2235 9.33824 36.1558 9.85542C36.1397 9.99117 36.1881 10.2174 35.9558 10.1754C35.7139 10.1334 35.3592 10.2627 35.2979 9.82632C35.2366 9.3835 35.1366 8.94713 35.0592 8.50754C35.0205 8.28127 34.9173 8.12612 34.7012 8.00976C34.0174 7.64451 33.3498 7.25663 32.6047 6.83643V6.83966Z" fill="#FD0000"/>
<path fill-rule="evenodd" clip-rule="evenodd" d="M22.557 29.7167C22.8122 29.7173 23.0721 29.7178 23.3385 29.7178L23.3417 29.7211C23.2922 29.646 23.2508 29.5814 23.2134 29.5231C23.1654 29.4483 23.124 29.3838 23.0805 29.3203C22.5787 28.5766 22.077 27.8325 21.5754 27.0884C19.7876 24.4369 17.9991 21.7843 16.2009 19.1417C15.9783 18.8152 16.0751 18.7635 16.3815 18.6504C17.8684 18.1106 19.1714 17.2799 20.2132 16.0807C21.6001 14.4839 22.3032 12.6285 21.9774 10.5081C21.4033 6.75218 17.9555 3.95622 14.3012 3.91097C11.7229 3.87864 9.14333 3.8842 6.5641 3.88975C5.01664 3.89309 3.46929 3.89642 1.92239 3.89157C1.58373 3.89157 1.47729 3.95622 1.47729 4.32147C1.48984 7.41113 1.48872 10.4988 1.48761 13.5876C1.48729 14.4702 1.48697 15.3529 1.48697 16.2358C1.48697 17.1124 1.4871 17.989 1.48723 18.8656C1.48775 22.3721 1.48826 25.8785 1.48052 29.3849C1.48052 29.6564 1.51922 29.7728 1.82885 29.7534C2.32878 29.7243 2.83515 29.7275 3.33508 29.7534C3.64471 29.7696 3.71567 29.6693 3.71567 29.3687C3.70922 27.7445 3.70841 26.1202 3.7076 24.496C3.7068 22.8718 3.70599 21.2475 3.69954 19.6233C3.69632 19.2613 3.76727 19.1481 4.15431 19.1481C7.07968 19.1643 10.0083 19.1578 12.9336 19.1481C13.2239 19.1449 13.3949 19.2289 13.5593 19.4746C15.0422 21.6677 16.5321 23.8566 18.0216 26.045C18.7999 27.1884 19.5781 28.3317 20.3551 29.4754C20.4551 29.6241 20.5422 29.7211 20.7454 29.7211C21.34 29.7142 21.9347 29.7154 22.557 29.7167ZM10.7987 6.0588C10.2826 6.06124 9.76646 6.06369 9.25032 6.06369V6.06693C8.67404 6.06585 8.09811 6.06621 7.52231 6.06657C6.37078 6.06728 5.21972 6.068 4.06723 6.05723C3.75437 6.054 3.69309 6.15097 3.69309 6.44187C3.70276 9.83258 3.70276 13.2233 3.69309 16.614C3.69309 16.9372 3.74792 17.0504 4.10915 17.0504C5.83451 17.0413 7.56089 17.0414 9.28714 17.0415C10.6298 17.0416 11.9723 17.0417 13.3142 17.0374C14.5237 17.0342 15.6848 16.7918 16.7524 16.197C18.536 15.2015 19.6746 13.7372 19.7326 11.6491C19.8229 8.40066 16.9459 6.12188 14.2786 6.07016C13.1198 6.04778 11.9595 6.05329 10.7987 6.0588Z" fill="#FD0000"/>
</svg>
