<svg width="32" height="32" viewBox="0 0 32 32" fill="none" xmlns="http://www.w3.org/2000/svg">
<rect x="5" y="5" width="22" height="22" fill="#FD0000"/>
<path d="M26.8334 1H5.16656C2.86653 1.00229 1.00229 2.86653 1 5.16656V26.8334C1.00229 29.1335 2.86653 30.9977 5.16656 31H26.8334C29.1335 30.9977 30.9977 29.1335 31 26.8334V5.16656C30.9977 2.86653 29.1335 1.00229 26.8334 1ZM23.5 19.3334H16.8334V23.1548L17.9107 22.0775C18.2419 21.7578 18.7695 21.7669 19.0892 22.0981C19.401 22.4211 19.401 22.9331 19.0892 23.256L16.5891 25.7559C16.2639 26.0813 15.7366 26.0816 15.4113 25.7563C15.4111 25.7563 15.4109 25.7561 15.4109 25.7559L12.9108 23.256C12.591 22.9248 12.6002 22.3972 12.9314 22.0775C13.2543 21.7658 13.7661 21.7658 14.0891 22.0775L15.1666 23.1551V19.3334H8.5C8.03972 19.3334 7.66664 18.9601 7.66664 18.5001C7.66664 18.0398 8.03972 17.6667 8.5 17.6667H23.5C23.9603 17.6667 24.3334 18.0398 24.3334 18.5001C24.3334 18.9601 23.9603 19.3334 23.5 19.3334ZM23.5 14.3333H8.5C8.03972 14.3333 7.66664 13.9602 7.66664 13.4999C7.66664 13.0399 8.03972 12.6666 8.5 12.6666H15.1666V8.84515L14.0893 9.9225C13.7581 10.2422 13.2305 10.2331 12.9108 9.9019C12.599 9.57895 12.599 9.06717 12.9108 8.74422L15.4109 6.24414C15.7359 5.9189 16.2632 5.91844 16.5887 6.24368C16.5889 6.24368 16.5891 6.24391 16.5894 6.24414L19.0892 8.74422C19.4204 9.06374 19.4296 9.59154 19.1098 9.9225C18.7901 10.2535 18.2625 10.2626 17.9315 9.94287C17.9244 9.93623 17.9176 9.92937 17.9109 9.9225L16.8334 8.84515V12.6666H23.5C23.9603 12.6666 24.3334 13.0399 24.3334 13.4999C24.3334 13.9602 23.9603 14.3333 23.5 14.3333Z" fill="#172340"/>
</svg>
