<svg width="28" height="28" viewBox="0 0 28 28" fill="none" xmlns="http://www.w3.org/2000/svg">
<path d="M17.9146 8.44333C17.8517 8.36859 17.8032 8.32811 17.697 8.35613H17.696C14.2852 9.25924 6.75814 12.4429 3.5 14.4993V10.5578L14.0108 1.75L24.5 10.5578V14.164C21.8163 14.682 15.8673 16.5308 13.3342 17.6892C13.3136 17.6986 13.2878 17.6954 13.3188 17.6539C14.773 15.6837 17.3824 12.9339 19.7278 10.9897C19.7429 10.9789 19.7557 10.9651 19.7654 10.9492C19.775 10.9333 19.7813 10.9156 19.7839 10.8971C19.7865 10.8786 19.7854 10.8598 19.7805 10.8418C19.7756 10.8238 19.7672 10.807 19.7556 10.7924C19.439 10.3803 18.2756 8.87516 17.9146 8.44333Z" fill="#006AFF"/>
<path d="M9.16333 23.5033C9.09113 23.5532 8.99315 23.5386 8.93642 23.468L6.97783 20.9902C6.92316 20.9227 6.91904 20.8874 6.98814 20.7774C8.50118 18.42 11.5891 14.7526 13.5591 13.1986C13.5942 13.1706 13.5849 13.1457 13.5436 13.1602C11.4912 13.8723 5.65972 16.5339 3.50103 17.8314V26.25H24.5V18.147C21.6317 18.665 13.0599 21.3712 9.16333 23.5033Z" fill="#006AFF"/>
</svg>
